<!DOCTYPE svg PUBLIC "-//W3C//DTD SVG 1.1//EN" "http://www.w3.org/Graphics/SVG/1.1/DTD/svg11.dtd">

<!-- Uploaded to: SVG Repo, www.svgrepo.com, Transformed by: SVG Repo Mixer Tools -->
<svg fill="#ffffff" version="1.1" id="Layer_1" xmlns="http://www.w3.org/2000/svg" xmlns:xlink="http://www.w3.org/1999/xlink" viewBox="0 0 512 512" xml:space="preserve" width="800px" height="800px" stroke="#ffffff">

<g id="SVGRepo_bgCarrier" stroke-width="0"/>

<g id="SVGRepo_tracerCarrier" stroke-linecap="round" stroke-linejoin="round"/>

<g id="SVGRepo_iconCarrier"> <g> <g> <rect y="454" width="512" height="21.333"/> </g> </g> <g> <g> <path d="M486.74,219.895c-2.854-2-6.188-2.453-9.489-1.224l-78.125,29.365L286.729,115.104c-2.688-3.172-6.927-4.479-10.906-3.401 l-111.948,30.537L40.156,39.135c-3.187-2.651-8.276-3.208-12.016-1.469c-3.75,1.755-6.807,5.521-6.807,9.661v362.667 c0,5.891,4.771,10.667,10.667,10.667s10.667-4.776,10.667-10.667V254.411l67.792,67.125c2.531,2.526,6.479,3.62,9.969,2.917 l101.583-20.281l102.771,92.417c1.99,1.791,4.583,2.739,7.177,2.739c1.208,0,1.771-0.203,2.937-0.62l134.438-48.245v59.531 c0,5.891,4.771,10.667,10.667,10.667s10.667-4.776,10.667-10.667V228.661C490.667,225.161,489.615,221.885,486.74,219.895z M469.333,327.811l-135.594,48.663l-101.604-91.74c-2.51-2.255-5.75-3.203-9.063-2.531l-101.646,20.214l-78.76-78.172V70.104 l111.167,92.083c2.688,2.234,6.635,2.995,9.969,2.099l110.948-30.214l113.021,133.479c2.927,3.443,7.031,4.672,11.271,3.099 l70.292-26.599V327.811z"/> </g> </g> </g>

</svg>